<?xml version="1.0" encoding="UTF-8" standalone="no"?>
<!DOCTYPE svg PUBLIC "-//W3C//DTD SVG 1.1//EN"
 "http://www.w3.org/Graphics/SVG/1.1/DTD/svg11.dtd">
<!-- Generated by graphviz version 7.0.4 (20221203.1631)
 -->
<!-- Title: dependency&#45;cruiser output Pages: 1 -->
<svg width="555pt" height="276pt"
 viewBox="0.00 0.00 555.00 276.37" xmlns="http://www.w3.org/2000/svg" xmlns:xlink="http://www.w3.org/1999/xlink">
<g id="graph0" class="graph" transform="scale(1 1) rotate(0) translate(4 272.37)">
<title>dependency&#45;cruiser output</title>
<polygon fill="white" stroke="none" points="-4,4 -4,-272.37 551,-272.37 551,4 -4,4"/>
<g id="clust1" class="cluster">
<title>cluster_src</title>
<path fill="#ffffff" stroke="black" stroke-width="2" d="M20,-14.37C20,-14.37 527,-14.37 527,-14.37 533,-14.37 539,-20.37 539,-26.37 539,-26.37 539,-248.37 539,-248.37 539,-254.37 533,-260.37 527,-260.37 527,-260.37 20,-260.37 20,-260.37 14,-260.37 8,-254.37 8,-248.37 8,-248.37 8,-26.37 8,-26.37 8,-20.37 14,-14.37 20,-14.37"/>
<text text-anchor="middle" x="273.5" y="-249.17" font-family="Helvetica,sans-Serif" font-weight="bold" font-size="9.00">src</text>
</g>
<g id="clust2" class="cluster">
<title>cluster_src/model</title>
<path fill="#ffffff" stroke="black" stroke-width="2" d="M327,-22.37C327,-22.37 519,-22.37 519,-22.37 525,-22.37 531,-28.37 531,-34.37 531,-34.37 531,-92.37 531,-92.37 531,-98.37 525,-104.37 519,-104.37 519,-104.37 327,-104.37 327,-104.37 321,-104.37 315,-98.37 315,-92.37 315,-92.37 315,-34.37 315,-34.37 315,-28.37 321,-22.37 327,-22.37"/>
<text text-anchor="middle" x="423" y="-93.17" font-family="Helvetica,sans-Serif" font-weight="bold" font-size="9.00">model</text>
</g>
<g id="clust4" class="cluster">
<title>cluster_src/util</title>
<path fill="#ffffff" stroke="black" stroke-width="2" d="M109.5,-122.37C109.5,-122.37 160.5,-122.37 160.5,-122.37 166.5,-122.37 172.5,-128.37 172.5,-134.37 172.5,-134.37 172.5,-222.37 172.5,-222.37 172.5,-228.37 166.5,-234.37 160.5,-234.37 160.5,-234.37 109.5,-234.37 109.5,-234.37 103.5,-234.37 97.5,-228.37 97.5,-222.37 97.5,-222.37 97.5,-134.37 97.5,-134.37 97.5,-128.37 103.5,-122.37 109.5,-122.37"/>
<text text-anchor="middle" x="135" y="-223.17" font-family="Helvetica,sans-Serif" font-weight="bold" font-size="9.00">util</text>
</g>
<g id="clust3" class="cluster">
<title>cluster_src/service</title>
<path fill="#ffffff" stroke="black" stroke-width="2" d="M90,-32.37C90,-32.37 295,-32.37 295,-32.37 301,-32.37 307,-38.37 307,-44.37 307,-44.37 307,-102.37 307,-102.37 307,-108.37 301,-114.37 295,-114.37 295,-114.37 90,-114.37 90,-114.37 84,-114.37 78,-108.37 78,-102.37 78,-102.37 78,-44.37 78,-44.37 78,-38.37 84,-32.37 90,-32.37"/>
<text text-anchor="middle" x="192.5" y="-103.17" font-family="Helvetica,sans-Serif" font-weight="bold" font-size="9.00">service</text>
</g>
<!-- src/index.ts -->
<g id="node1" class="node">
<title>src/index.ts</title>
<g id="a_node1"><a xlink:href="src/index.ts" xlink:title="index.ts">
<path fill="#ddfeff" stroke="black" d="M64,-133.37C64,-133.37 22,-133.37 22,-133.37 19,-133.37 16,-130.37 16,-127.37 16,-127.37 16,-121.37 16,-121.37 16,-118.37 19,-115.37 22,-115.37 22,-115.37 64,-115.37 64,-115.37 67,-115.37 70,-118.37 70,-121.37 70,-121.37 70,-127.37 70,-127.37 70,-130.37 67,-133.37 64,-133.37"/>
<text text-anchor="start" x="27" y="-122.17" font-family="Helvetica,sans-Serif" font-size="9.00">index.ts</text>
</a>
</g>
</g>
<!-- src/model/Manager.ts -->
<g id="node2" class="node">
<title>src/model/Manager.ts</title>
<g id="a_node2"><a xlink:href="src/model/Manager.ts" xlink:title="Manager.ts">
<path fill="#ddfeff" stroke="black" d="M381,-48.37C381,-48.37 331,-48.37 331,-48.37 328,-48.37 325,-45.37 325,-42.37 325,-42.37 325,-36.37 325,-36.37 325,-33.37 328,-30.37 331,-30.37 331,-30.37 381,-30.37 381,-30.37 384,-30.37 387,-33.37 387,-36.37 387,-36.37 387,-42.37 387,-42.37 387,-45.37 384,-48.37 381,-48.37"/>
<text text-anchor="start" x="333" y="-37.17" font-family="Helvetica,sans-Serif" font-size="9.00">Manager.ts</text>
</a>
</g>
</g>
<!-- src/index.ts&#45;&gt;src/model/Manager.ts -->
<g id="edge1" class="edge">
<title>src/index.ts&#45;&gt;src/model/Manager.ts</title>
<path fill="none" stroke="#000000" stroke-width="2" stroke-opacity="0.200000" d="M44.08,-115.02C44.81,-95.24 49.64,-49.34 78,-29.37 152.32,22.97 267.78,-7.37 323.2,-26.88"/>
<polygon fill="#000000" fill-opacity="0.200000" stroke="#000000" stroke-width="2" stroke-opacity="0.200000" points="322.36,-28.8 328.72,-28.87 323.79,-24.85 322.36,-28.8"/>
</g>
<!-- src/service/MessageHandler.ts -->
<g id="node3" class="node">
<title>src/service/MessageHandler.ts</title>
<g id="a_node3"><a xlink:href="src/service/MessageHandler.ts" xlink:title="MessageHandler.ts">
<path fill="#ddfeff" stroke="black" d="M178,-88.37C178,-88.37 92,-88.37 92,-88.37 89,-88.37 86,-85.37 86,-82.37 86,-82.37 86,-76.37 86,-76.37 86,-73.37 89,-70.37 92,-70.37 92,-70.37 178,-70.37 178,-70.37 181,-70.37 184,-73.37 184,-76.37 184,-76.37 184,-82.37 184,-82.37 184,-85.37 181,-88.37 178,-88.37"/>
<text text-anchor="start" x="94" y="-77.17" font-family="Helvetica,sans-Serif" font-size="9.00">MessageHandler.ts</text>
</a>
</g>
</g>
<!-- src/index.ts&#45;&gt;src/service/MessageHandler.ts -->
<g id="edge2" class="edge">
<title>src/index.ts&#45;&gt;src/service/MessageHandler.ts</title>
<path fill="none" stroke="#000000" stroke-width="2" stroke-opacity="0.200000" d="M62.65,-115.04C75.47,-108.63 92.71,-100.01 107.03,-92.85"/>
<polygon fill="#000000" fill-opacity="0.200000" stroke="#000000" stroke-width="2" stroke-opacity="0.200000" points="107.93,-94.75 112.36,-90.19 106.05,-90.99 107.93,-94.75"/>
</g>
<!-- src/util/global.ts -->
<g id="node4" class="node">
<title>src/util/global.ts</title>
<g id="a_node4"><a xlink:href="src/util/global.ts" xlink:title="global.ts">
<path fill="#ddfeff" stroke="black" d="M156,-208.37C156,-208.37 114,-208.37 114,-208.37 111,-208.37 108,-205.37 108,-202.37 108,-202.37 108,-196.37 108,-196.37 108,-193.37 111,-190.37 114,-190.37 114,-190.37 156,-190.37 156,-190.37 159,-190.37 162,-193.37 162,-196.37 162,-196.37 162,-202.37 162,-202.37 162,-205.37 159,-208.37 156,-208.37"/>
<text text-anchor="start" x="117" y="-197.17" font-family="Helvetica,sans-Serif" font-size="9.00">global.ts</text>
</a>
</g>
</g>
<!-- src/index.ts&#45;&gt;src/util/global.ts -->
<g id="edge3" class="edge">
<title>src/index.ts&#45;&gt;src/util/global.ts</title>
<path fill="none" stroke="#000000" stroke-width="2" stroke-opacity="0.200000" d="M46.7,-133.6C51.07,-146.87 60.95,-171.18 78,-184.37 84.06,-189.06 91.48,-192.29 98.9,-194.5"/>
<polygon fill="#000000" fill-opacity="0.200000" stroke="#000000" stroke-width="2" stroke-opacity="0.200000" points="98.28,-196.51 104.61,-195.94 99.3,-192.44 98.28,-196.51"/>
</g>
<!-- src/util/tool.ts -->
<g id="node5" class="node">
<title>src/util/tool.ts</title>
<g id="a_node5"><a xlink:href="src/util/tool.ts" xlink:title="tool.ts">
<path fill="#ddfeff" stroke="black" d="M156,-178.37C156,-178.37 114,-178.37 114,-178.37 111,-178.37 108,-175.37 108,-172.37 108,-172.37 108,-166.37 108,-166.37 108,-163.37 111,-160.37 114,-160.37 114,-160.37 156,-160.37 156,-160.37 159,-160.37 162,-163.37 162,-166.37 162,-166.37 162,-172.37 162,-172.37 162,-175.37 159,-178.37 156,-178.37"/>
<text text-anchor="start" x="122.5" y="-167.17" font-family="Helvetica,sans-Serif" font-size="9.00">tool.ts</text>
</a>
</g>
</g>
<!-- src/index.ts&#45;&gt;src/util/tool.ts -->
<g id="edge4" class="edge">
<title>src/index.ts&#45;&gt;src/util/tool.ts</title>
<path fill="none" stroke="#000000" stroke-width="2" stroke-opacity="0.200000" d="M52.36,-133.77C58.77,-140.43 68.15,-149.08 78,-154.37 84.57,-157.89 92.02,-160.63 99.29,-162.74"/>
<polygon fill="#000000" fill-opacity="0.200000" stroke="#000000" stroke-width="2" stroke-opacity="0.200000" points="98.43,-164.68 104.76,-164.18 99.49,-160.62 98.43,-164.68"/>
</g>
<!-- src/model/Room.ts -->
<g id="node6" class="node">
<title>src/model/Room.ts</title>
<g id="a_node6"><a xlink:href="src/model/Room.ts" xlink:title="Room.ts">
<path fill="#ddfeff" stroke="black" d="M450,-48.37C450,-48.37 408,-48.37 408,-48.37 405,-48.37 402,-45.37 402,-42.37 402,-42.37 402,-36.37 402,-36.37 402,-33.37 405,-30.37 408,-30.37 408,-30.37 450,-30.37 450,-30.37 453,-30.37 456,-33.37 456,-36.37 456,-36.37 456,-42.37 456,-42.37 456,-45.37 453,-48.37 450,-48.37"/>
<text text-anchor="start" x="411" y="-37.17" font-family="Helvetica,sans-Serif" font-size="9.00">Room.ts</text>
</a>
</g>
</g>
<!-- src/model/Manager.ts&#45;&gt;src/model/Room.ts -->
<g id="edge5" class="edge">
<title>src/model/Manager.ts&#45;&gt;src/model/Room.ts</title>
<path fill="none" stroke="#000000" stroke-width="2" stroke-opacity="0.200000" d="M387.11,-39.37C389.08,-39.37 391.06,-39.37 393.05,-39.37"/>
<polygon fill="#000000" fill-opacity="0.200000" stroke="#000000" stroke-width="2" stroke-opacity="0.200000" points="392.64,-41.47 398.64,-39.37 392.64,-37.27 392.64,-41.47"/>
</g>
<!-- src/model/User.ts -->
<g id="node7" class="node">
<title>src/model/User.ts</title>
<g id="a_node7"><a xlink:href="src/model/User.ts" xlink:title="User.ts">
<path fill="#ddfeff" stroke="black" d="M517,-70.37C517,-70.37 475,-70.37 475,-70.37 472,-70.37 469,-67.37 469,-64.37 469,-64.37 469,-58.37 469,-58.37 469,-55.37 472,-52.37 475,-52.37 475,-52.37 517,-52.37 517,-52.37 520,-52.37 523,-55.37 523,-58.37 523,-58.37 523,-64.37 523,-64.37 523,-67.37 520,-70.37 517,-70.37"/>
<text text-anchor="start" x="480.5" y="-59.17" font-family="Helvetica,sans-Serif" font-size="9.00">User.ts</text>
</a>
</g>
</g>
<!-- src/model/Manager.ts&#45;&gt;src/model/User.ts -->
<g id="edge6" class="edge">
<title>src/model/Manager.ts&#45;&gt;src/model/User.ts</title>
<path fill="none" stroke="#000000" stroke-width="2" stroke-opacity="0.200000" d="M381.46,-48.73C388.04,-50.92 395.22,-53 402,-54.37 420.92,-58.17 442.39,-59.95 459.93,-60.76"/>
<polygon fill="#000000" fill-opacity="0.200000" stroke="#000000" stroke-width="2" stroke-opacity="0.200000" points="459.61,-62.85 465.68,-60.99 459.77,-58.66 459.61,-62.85"/>
</g>
<!-- src/service/BinaryHandler.ts -->
<g id="node9" class="node">
<title>src/service/BinaryHandler.ts</title>
<g id="a_node9"><a xlink:href="src/service/BinaryHandler.ts" xlink:title="BinaryHandler.ts">
<path fill="#ddfeff" stroke="black" d="M284.5,-58.37C284.5,-58.37 211.5,-58.37 211.5,-58.37 208.5,-58.37 205.5,-55.37 205.5,-52.37 205.5,-52.37 205.5,-46.37 205.5,-46.37 205.5,-43.37 208.5,-40.37 211.5,-40.37 211.5,-40.37 284.5,-40.37 284.5,-40.37 287.5,-40.37 290.5,-43.37 290.5,-46.37 290.5,-46.37 290.5,-52.37 290.5,-52.37 290.5,-55.37 287.5,-58.37 284.5,-58.37"/>
<text text-anchor="start" x="213.5" y="-47.17" font-family="Helvetica,sans-Serif" font-size="9.00">BinaryHandler.ts</text>
</a>
</g>
</g>
<!-- src/service/MessageHandler.ts&#45;&gt;src/service/BinaryHandler.ts -->
<g id="edge11" class="edge">
<title>src/service/MessageHandler.ts&#45;&gt;src/service/BinaryHandler.ts</title>
<path fill="none" stroke="#000000" stroke-width="2" stroke-opacity="0.200000" d="M171.12,-69.87C181.45,-67.08 192.86,-64 203.64,-61.08"/>
<polygon fill="#000000" fill-opacity="0.200000" stroke="#000000" stroke-width="2" stroke-opacity="0.200000" points="203.94,-63.18 209.19,-59.59 202.85,-59.12 203.94,-63.18"/>
</g>
<!-- src/service/NonBinaryHandler.ts -->
<g id="node10" class="node">
<title>src/service/NonBinaryHandler.ts</title>
<g id="a_node10"><a xlink:href="src/service/NonBinaryHandler.ts" xlink:title="NonBinaryHandler.ts">
<path fill="#ddfeff" stroke="black" d="M293,-88.37C293,-88.37 203,-88.37 203,-88.37 200,-88.37 197,-85.37 197,-82.37 197,-82.37 197,-76.37 197,-76.37 197,-73.37 200,-70.37 203,-70.37 203,-70.37 293,-70.37 293,-70.37 296,-70.37 299,-73.37 299,-76.37 299,-76.37 299,-82.37 299,-82.37 299,-85.37 296,-88.37 293,-88.37"/>
<text text-anchor="start" x="205" y="-77.17" font-family="Helvetica,sans-Serif" font-size="9.00">NonBinaryHandler.ts</text>
</a>
</g>
</g>
<!-- src/service/MessageHandler.ts&#45;&gt;src/service/NonBinaryHandler.ts -->
<g id="edge12" class="edge">
<title>src/service/MessageHandler.ts&#45;&gt;src/service/NonBinaryHandler.ts</title>
<path fill="none" stroke="#000000" stroke-width="2" stroke-opacity="0.200000" d="M184.36,-79.37C185.51,-79.37 186.67,-79.37 187.82,-79.37"/>
<polygon fill="#000000" fill-opacity="0.200000" stroke="#000000" stroke-width="2" stroke-opacity="0.200000" points="187.67,-81.47 193.67,-79.37 187.67,-77.27 187.67,-81.47"/>
</g>
<!-- src/model/Room.ts&#45;&gt;src/model/User.ts -->
<g id="edge7" class="edge">
<title>src/model/Room.ts&#45;&gt;src/model/User.ts</title>
<path fill="none" stroke="#000000" stroke-width="2" stroke-opacity="0.200000" d="M456.44,-48.31C457.71,-48.74 459,-49.18 460.29,-49.62"/>
<polygon fill="#000000" fill-opacity="0.200000" stroke="#000000" stroke-width="2" stroke-opacity="0.200000" points="459.57,-51.59 465.93,-51.53 460.92,-47.61 459.57,-51.59"/>
</g>
<!-- src/model/Publisher.ts -->
<g id="node8" class="node">
<title>src/model/Publisher.ts</title>
<g id="a_node8"><a xlink:href="src/model/Publisher.ts" xlink:title="Publisher.ts">
<path fill="#ddfeff" stroke="black" d="M383,-78.37C383,-78.37 329,-78.37 329,-78.37 326,-78.37 323,-75.37 323,-72.37 323,-72.37 323,-66.37 323,-66.37 323,-63.37 326,-60.37 329,-60.37 329,-60.37 383,-60.37 383,-60.37 386,-60.37 389,-63.37 389,-66.37 389,-66.37 389,-72.37 389,-72.37 389,-75.37 386,-78.37 383,-78.37"/>
<text text-anchor="start" x="331" y="-67.17" font-family="Helvetica,sans-Serif" font-size="9.00">Publisher.ts</text>
</a>
</g>
</g>
<!-- src/service/BinaryHandler.ts&#45;&gt;src/model/Manager.ts -->
<g id="edge8" class="edge">
<title>src/service/BinaryHandler.ts&#45;&gt;src/model/Manager.ts</title>
<path fill="none" stroke="#000000" stroke-width="2" stroke-opacity="0.200000" d="M290.89,-45.41C299.05,-44.64 307.58,-43.84 315.65,-43.08"/>
<polygon fill="#000000" fill-opacity="0.200000" stroke="#000000" stroke-width="2" stroke-opacity="0.200000" points="315.73,-45.18 321.51,-42.52 315.34,-41 315.73,-45.18"/>
</g>
<!-- src/service/BinaryHandler.ts&#45;&gt;src/model/User.ts -->
<g id="edge10" class="edge">
<title>src/service/BinaryHandler.ts&#45;&gt;src/model/User.ts</title>
<path fill="none" stroke="#000000" stroke-width="2" stroke-opacity="0.200000" d="M290.99,-55.14C296.83,-57.33 302.39,-60.31 307,-64.37 314.19,-70.69 307.07,-79 315,-84.37 362.05,-116.22 432.15,-91.77 469.47,-74.55"/>
<polygon fill="#000000" fill-opacity="0.200000" stroke="#000000" stroke-width="2" stroke-opacity="0.200000" points="470.1,-76.57 474.61,-72.09 468.29,-72.78 470.1,-76.57"/>
</g>
<!-- src/service/BinaryHandler.ts&#45;&gt;src/model/Publisher.ts -->
<g id="edge9" class="edge">
<title>src/service/BinaryHandler.ts&#45;&gt;src/model/Publisher.ts</title>
<path fill="none" stroke="#000000" stroke-width="2" stroke-opacity="0.200000" d="M290.89,-57.27C298.46,-58.7 306.35,-60.19 313.9,-61.61"/>
<polygon fill="#000000" fill-opacity="0.200000" stroke="#000000" stroke-width="2" stroke-opacity="0.200000" points="313.3,-63.63 319.59,-62.68 314.08,-59.51 313.3,-63.63"/>
</g>
<!-- src/service/NonBinaryHandler.ts&#45;&gt;src/model/Publisher.ts -->
<g id="edge13" class="edge">
<title>src/service/NonBinaryHandler.ts&#45;&gt;src/model/Publisher.ts</title>
<path fill="none" stroke="#000000" stroke-width="2" stroke-opacity="0.200000" d="M299.21,-74.63C304.03,-74.17 308.89,-73.72 313.62,-73.27"/>
<polygon fill="#000000" fill-opacity="0.200000" stroke="#000000" stroke-width="2" stroke-opacity="0.200000" points="313.72,-75.37 319.49,-72.72 313.32,-71.19 313.72,-75.37"/>
</g>
<!-- src/util/test.test.ts -->
<g id="node11" class="node">
<title>src/util/test.test.ts</title>
<g id="a_node11"><a xlink:href="src/util/test.test.ts" xlink:title="no&#45;orphans">
<path fill="#ccffcc" stroke="orange" d="M158.5,-148.37C158.5,-148.37 111.5,-148.37 111.5,-148.37 108.5,-148.37 105.5,-145.37 105.5,-142.37 105.5,-142.37 105.5,-136.37 105.5,-136.37 105.5,-133.37 108.5,-130.37 111.5,-130.37 111.5,-130.37 158.5,-130.37 158.5,-130.37 161.5,-130.37 164.5,-133.37 164.5,-136.37 164.5,-136.37 164.5,-142.37 164.5,-142.37 164.5,-145.37 161.5,-148.37 158.5,-148.37"/>
<text text-anchor="start" x="113.5" y="-137.17" font-family="Helvetica,sans-Serif" font-size="9.00" fill="orange">test.test.ts</text>
</a>
</g>
</g>
</g>
</svg>
