<?xml version="1.0" encoding="UTF-8" standalone="no"?>
<!DOCTYPE svg PUBLIC "-//W3C//DTD SVG 1.1//EN"
 "http://www.w3.org/Graphics/SVG/1.1/DTD/svg11.dtd">
<!-- Generated by graphviz version 7.0.4 (20221203.1631)
 -->
<!-- Title: dependency&#45;cruiser output Pages: 1 -->
<svg width="800pt" height="298pt"
 viewBox="0.00 0.00 800.00 298.00" xmlns="http://www.w3.org/2000/svg" xmlns:xlink="http://www.w3.org/1999/xlink">
<g id="graph0" class="graph" transform="scale(1 1) rotate(0) translate(4 294)">
<title>dependency&#45;cruiser output</title>
<polygon fill="white" stroke="none" points="-4,4 -4,-294 796,-294 796,4 -4,4"/>
<g id="clust1" class="cluster">
<title>cluster_src</title>
<path fill="#ffffff" stroke="black" stroke-width="2" d="M20,-8C20,-8 772,-8 772,-8 778,-8 784,-14 784,-20 784,-20 784,-270 784,-270 784,-276 778,-282 772,-282 772,-282 20,-282 20,-282 14,-282 8,-276 8,-270 8,-270 8,-20 8,-20 8,-14 14,-8 20,-8"/>
<text text-anchor="middle" x="396" y="-270.8" font-family="Helvetica,sans-Serif" font-weight="bold" font-size="9.00">src</text>
</g>
<g id="clust2" class="cluster">
<title>cluster_src/model</title>
<path fill="#ffffff" stroke="black" stroke-width="2" d="M327,-22C327,-22 764,-22 764,-22 770,-22 776,-28 776,-34 776,-34 776,-152 776,-152 776,-158 770,-164 764,-164 764,-164 327,-164 327,-164 321,-164 315,-158 315,-152 315,-152 315,-34 315,-34 315,-28 321,-22 327,-22"/>
<text text-anchor="middle" x="545.5" y="-152.8" font-family="Helvetica,sans-Serif" font-weight="bold" font-size="9.00">model</text>
</g>
<g id="clust3" class="cluster">
<title>cluster_src/service</title>
<path fill="#ffffff" stroke="black" stroke-width="2" d="M90,-74C90,-74 295,-74 295,-74 301,-74 307,-80 307,-86 307,-86 307,-144 307,-144 307,-150 301,-156 295,-156 295,-156 90,-156 90,-156 84,-156 78,-150 78,-144 78,-144 78,-86 78,-86 78,-80 84,-74 90,-74"/>
<text text-anchor="middle" x="192.5" y="-144.8" font-family="Helvetica,sans-Serif" font-weight="bold" font-size="9.00">service</text>
</g>
<g id="clust4" class="cluster">
<title>cluster_src/util</title>
<path fill="#ffffff" stroke="black" stroke-width="2" d="M353.5,-174C353.5,-174 399.5,-174 399.5,-174 405.5,-174 411.5,-180 411.5,-186 411.5,-186 411.5,-244 411.5,-244 411.5,-250 405.5,-256 399.5,-256 399.5,-256 353.5,-256 353.5,-256 347.5,-256 341.5,-250 341.5,-244 341.5,-244 341.5,-186 341.5,-186 341.5,-180 347.5,-174 353.5,-174"/>
<text text-anchor="middle" x="376.5" y="-244.8" font-family="Helvetica,sans-Serif" font-weight="bold" font-size="9.00">util</text>
</g>
<!-- src/index.ts -->
<g id="node1" class="node">
<title>src/index.ts</title>
<g id="a_node1"><a xlink:href="src/index.ts" xlink:title="index.ts">
<path fill="#ddfeff" stroke="black" d="M64,-184C64,-184 22,-184 22,-184 19,-184 16,-181 16,-178 16,-178 16,-172 16,-172 16,-169 19,-166 22,-166 22,-166 64,-166 64,-166 67,-166 70,-169 70,-172 70,-172 70,-178 70,-178 70,-181 67,-184 64,-184"/>
<text text-anchor="start" x="27" y="-172.8" font-family="Helvetica,sans-Serif" font-size="9.00">index.ts</text>
</a>
</g>
</g>
<!-- src/model/Manager.ts -->
<g id="node2" class="node">
<title>src/model/Manager.ts</title>
<g id="a_node2"><a xlink:href="src/model/Manager.ts" xlink:title="Manager.ts">
<path fill="#ddfeff" stroke="black" d="M499,-138C499,-138 449,-138 449,-138 446,-138 443,-135 443,-132 443,-132 443,-126 443,-126 443,-123 446,-120 449,-120 449,-120 499,-120 499,-120 502,-120 505,-123 505,-126 505,-126 505,-132 505,-132 505,-135 502,-138 499,-138"/>
<text text-anchor="start" x="451" y="-126.8" font-family="Helvetica,sans-Serif" font-size="9.00">Manager.ts</text>
</a>
</g>
</g>
<!-- src/index.ts&#45;&gt;src/model/Manager.ts -->
<g id="edge1" class="edge">
<title>src/index.ts&#45;&gt;src/model/Manager.ts</title>
<path fill="none" stroke="#000000" stroke-width="2" stroke-opacity="0.200000" d="M70.5,-173.42C156.97,-168.27 425.66,-152.2 430,-151 437.05,-149.06 444.28,-145.89 450.76,-142.55"/>
<polygon fill="#000000" fill-opacity="0.200000" stroke="#000000" stroke-width="2" stroke-opacity="0.200000" points="451.58,-144.49 455.83,-139.77 449.56,-140.81 451.58,-144.49"/>
</g>
<!-- src/service/MessageHandler.ts -->
<g id="node3" class="node">
<title>src/service/MessageHandler.ts</title>
<g id="a_node3"><a xlink:href="src/service/MessageHandler.ts" xlink:title="MessageHandler.ts">
<path fill="#ddfeff" stroke="black" d="M178,-130C178,-130 92,-130 92,-130 89,-130 86,-127 86,-124 86,-124 86,-118 86,-118 86,-115 89,-112 92,-112 92,-112 178,-112 178,-112 181,-112 184,-115 184,-118 184,-118 184,-124 184,-124 184,-127 181,-130 178,-130"/>
<text text-anchor="start" x="94" y="-118.8" font-family="Helvetica,sans-Serif" font-size="9.00">MessageHandler.ts</text>
</a>
</g>
</g>
<!-- src/index.ts&#45;&gt;src/service/MessageHandler.ts -->
<g id="edge2" class="edge">
<title>src/index.ts&#45;&gt;src/service/MessageHandler.ts</title>
<path fill="none" stroke="#000000" stroke-width="2" stroke-opacity="0.200000" d="M49.23,-165.66C54.26,-157.46 62.62,-145.59 77.96,-134.89"/>
<polygon fill="#000000" fill-opacity="0.200000" stroke="#000000" stroke-width="2" stroke-opacity="0.200000" points="79.04,-136.7 82.97,-131.7 76.78,-133.15 79.04,-136.7"/>
</g>
<!-- src/util/global.ts -->
<g id="node4" class="node">
<title>src/util/global.ts</title>
<g id="a_node4"><a xlink:href="src/util/global.ts" xlink:title="global.ts">
<path fill="#ddfeff" stroke="black" d="M397.5,-230C397.5,-230 355.5,-230 355.5,-230 352.5,-230 349.5,-227 349.5,-224 349.5,-224 349.5,-218 349.5,-218 349.5,-215 352.5,-212 355.5,-212 355.5,-212 397.5,-212 397.5,-212 400.5,-212 403.5,-215 403.5,-218 403.5,-218 403.5,-224 403.5,-224 403.5,-227 400.5,-230 397.5,-230"/>
<text text-anchor="start" x="358.5" y="-218.8" font-family="Helvetica,sans-Serif" font-size="9.00">global.ts</text>
</a>
</g>
</g>
<!-- src/index.ts&#45;&gt;src/util/global.ts -->
<g id="edge3" class="edge">
<title>src/index.ts&#45;&gt;src/util/global.ts</title>
<path fill="none" stroke="#000000" stroke-width="2" stroke-opacity="0.200000" d="M70.3,-181.47C72.89,-182.03 75.49,-182.55 78,-183 172.16,-200.04 284.44,-212.2 340.3,-217.7"/>
<polygon fill="#000000" fill-opacity="0.200000" stroke="#000000" stroke-width="2" stroke-opacity="0.200000" points="339.91,-219.77 346.08,-218.27 340.31,-215.59 339.91,-219.77"/>
</g>
<!-- src/util/tool.ts -->
<g id="node5" class="node">
<title>src/util/tool.ts</title>
<g id="a_node5"><a xlink:href="src/util/tool.ts" xlink:title="tool.ts">
<path fill="#ddfeff" stroke="black" d="M397.5,-200C397.5,-200 355.5,-200 355.5,-200 352.5,-200 349.5,-197 349.5,-194 349.5,-194 349.5,-188 349.5,-188 349.5,-185 352.5,-182 355.5,-182 355.5,-182 397.5,-182 397.5,-182 400.5,-182 403.5,-185 403.5,-188 403.5,-188 403.5,-194 403.5,-194 403.5,-197 400.5,-200 397.5,-200"/>
<text text-anchor="start" x="364" y="-188.8" font-family="Helvetica,sans-Serif" font-size="9.00">tool.ts</text>
</a>
</g>
</g>
<!-- src/index.ts&#45;&gt;src/util/tool.ts -->
<g id="edge4" class="edge">
<title>src/index.ts&#45;&gt;src/util/tool.ts</title>
<path fill="none" stroke="#000000" stroke-width="2" stroke-opacity="0.200000" d="M70.29,-176.27C129.52,-179.13 273.46,-186.07 340.3,-189.3"/>
<polygon fill="#000000" fill-opacity="0.200000" stroke="#000000" stroke-width="2" stroke-opacity="0.200000" points="340.09,-191.39 346.18,-189.59 340.29,-187.2 340.09,-191.39"/>
</g>
<!-- src/model/Room.ts -->
<g id="node7" class="node">
<title>src/model/Room.ts</title>
<g id="a_node7"><a xlink:href="src/model/Room.ts" xlink:title="Room.ts">
<path fill="#ddfeff" stroke="black" d="M682,-138C682,-138 640,-138 640,-138 637,-138 634,-135 634,-132 634,-132 634,-126 634,-126 634,-123 637,-120 640,-120 640,-120 682,-120 682,-120 685,-120 688,-123 688,-126 688,-126 688,-132 688,-132 688,-135 685,-138 682,-138"/>
<text text-anchor="start" x="643" y="-126.8" font-family="Helvetica,sans-Serif" font-size="9.00">Room.ts</text>
</a>
</g>
</g>
<!-- src/model/Manager.ts&#45;&gt;src/model/Room.ts -->
<g id="edge6" class="edge">
<title>src/model/Manager.ts&#45;&gt;src/model/Room.ts</title>
<path fill="none" stroke="#000000" stroke-width="2" stroke-opacity="0.200000" d="M505.07,-129.79C509.41,-129.88 513.82,-129.95 518,-130 558,-130.47 568,-130.38 608,-130 613.45,-129.95 619.22,-129.86 624.86,-129.77"/>
<polygon fill="#000000" fill-opacity="0.200000" stroke="#000000" stroke-width="2" stroke-opacity="0.200000" points="624.56,-131.87 630.52,-129.66 624.48,-127.67 624.56,-131.87"/>
</g>
<!-- src/model/Room.Manager.ts -->
<g id="node8" class="node">
<title>src/model/Room.Manager.ts</title>
<g id="a_node8"><a xlink:href="src/model/Room.Manager.ts" xlink:title="Room.Manager.ts">
<path fill="#ddfeff" stroke="black" d="M602,-124C602,-124 524,-124 524,-124 521,-124 518,-121 518,-118 518,-118 518,-112 518,-112 518,-109 521,-106 524,-106 524,-106 602,-106 602,-106 605,-106 608,-109 608,-112 608,-112 608,-118 608,-118 608,-121 605,-124 602,-124"/>
<text text-anchor="start" x="526" y="-112.8" font-family="Helvetica,sans-Serif" font-size="9.00">Room.Manager.ts</text>
</a>
</g>
</g>
<!-- src/model/Manager.ts&#45;&gt;src/model/Room.Manager.ts -->
<g id="edge7" class="edge">
<title>src/model/Manager.ts&#45;&gt;src/model/Room.Manager.ts</title>
<path fill="none" stroke="#000000" stroke-width="2" stroke-opacity="0.200000" d="M505.43,-124.1C506.53,-123.93 507.65,-123.75 508.77,-123.57"/>
<polygon fill="#000000" fill-opacity="0.200000" stroke="#000000" stroke-width="2" stroke-opacity="0.200000" points="508.93,-125.67 514.52,-122.64 508.27,-121.52 508.93,-125.67"/>
</g>
<!-- src/model/User.ts -->
<g id="node9" class="node">
<title>src/model/User.ts</title>
<g id="a_node9"><a xlink:href="src/model/User.ts" xlink:title="User.ts">
<path fill="#ddfeff" stroke="black" d="M762,-79C762,-79 720,-79 720,-79 717,-79 714,-76 714,-73 714,-73 714,-67 714,-67 714,-64 717,-61 720,-61 720,-61 762,-61 762,-61 765,-61 768,-64 768,-67 768,-67 768,-73 768,-73 768,-76 765,-79 762,-79"/>
<text text-anchor="start" x="725.5" y="-67.8" font-family="Helvetica,sans-Serif" font-size="9.00">User.ts</text>
</a>
</g>
</g>
<!-- src/model/Manager.ts&#45;&gt;src/model/User.ts -->
<g id="edge8" class="edge">
<title>src/model/Manager.ts&#45;&gt;src/model/User.ts</title>
<path fill="none" stroke="#000000" stroke-width="2" stroke-opacity="0.200000" d="M478.55,-119.68C484.38,-105.87 497.44,-80.46 518,-70 577.9,-39.53 659.2,-50.57 704.95,-60.71"/>
<polygon fill="#000000" fill-opacity="0.200000" stroke="#000000" stroke-width="2" stroke-opacity="0.200000" points="704.35,-62.72 710.67,-62.03 705.29,-58.63 704.35,-62.72"/>
</g>
<!-- src/model/User.Manager.ts -->
<g id="node10" class="node">
<title>src/model/User.Manager.ts</title>
<g id="a_node10"><a xlink:href="src/model/User.Manager.ts" xlink:title="User.Manager.ts">
<path fill="#ddfeff" stroke="black" d="M599.5,-94C599.5,-94 526.5,-94 526.5,-94 523.5,-94 520.5,-91 520.5,-88 520.5,-88 520.5,-82 520.5,-82 520.5,-79 523.5,-76 526.5,-76 526.5,-76 599.5,-76 599.5,-76 602.5,-76 605.5,-79 605.5,-82 605.5,-82 605.5,-88 605.5,-88 605.5,-91 602.5,-94 599.5,-94"/>
<text text-anchor="start" x="528.5" y="-82.8" font-family="Helvetica,sans-Serif" font-size="9.00">User.Manager.ts</text>
</a>
</g>
</g>
<!-- src/model/Manager.ts&#45;&gt;src/model/User.Manager.ts -->
<g id="edge9" class="edge">
<title>src/model/Manager.ts&#45;&gt;src/model/User.Manager.ts</title>
<path fill="none" stroke="#000000" stroke-width="2" stroke-opacity="0.200000" d="M486.89,-119.72C495.25,-113.52 506.87,-105.53 518,-100 519.52,-99.25 521.08,-98.52 522.68,-97.81"/>
<polygon fill="#000000" fill-opacity="0.200000" stroke="#000000" stroke-width="2" stroke-opacity="0.200000" points="523.25,-99.84 528.01,-95.63 521.66,-95.96 523.25,-99.84"/>
</g>
<!-- src/service/BinaryHandler.ts -->
<g id="node15" class="node">
<title>src/service/BinaryHandler.ts</title>
<g id="a_node15"><a xlink:href="src/service/BinaryHandler.ts" xlink:title="BinaryHandler.ts">
<path fill="#ddfeff" stroke="black" d="M284.5,-130C284.5,-130 211.5,-130 211.5,-130 208.5,-130 205.5,-127 205.5,-124 205.5,-124 205.5,-118 205.5,-118 205.5,-115 208.5,-112 211.5,-112 211.5,-112 284.5,-112 284.5,-112 287.5,-112 290.5,-115 290.5,-118 290.5,-118 290.5,-124 290.5,-124 290.5,-127 287.5,-130 284.5,-130"/>
<text text-anchor="start" x="213.5" y="-118.8" font-family="Helvetica,sans-Serif" font-size="9.00">BinaryHandler.ts</text>
</a>
</g>
</g>
<!-- src/service/MessageHandler.ts&#45;&gt;src/service/BinaryHandler.ts -->
<g id="edge19" class="edge">
<title>src/service/MessageHandler.ts&#45;&gt;src/service/BinaryHandler.ts</title>
<path fill="none" stroke="#000000" stroke-width="2" stroke-opacity="0.200000" d="M184.36,-121C188.24,-121 192.17,-121 196.06,-121"/>
<polygon fill="#000000" fill-opacity="0.200000" stroke="#000000" stroke-width="2" stroke-opacity="0.200000" points="196.03,-123.1 202.03,-121 196.03,-118.9 196.03,-123.1"/>
</g>
<!-- src/service/NonBinaryHandler.ts -->
<g id="node16" class="node">
<title>src/service/NonBinaryHandler.ts</title>
<g id="a_node16"><a xlink:href="src/service/NonBinaryHandler.ts" xlink:title="NonBinaryHandler.ts">
<path fill="#ddfeff" stroke="black" d="M293,-100C293,-100 203,-100 203,-100 200,-100 197,-97 197,-94 197,-94 197,-88 197,-88 197,-85 200,-82 203,-82 203,-82 293,-82 293,-82 296,-82 299,-85 299,-88 299,-88 299,-94 299,-94 299,-97 296,-100 293,-100"/>
<text text-anchor="start" x="205" y="-88.8" font-family="Helvetica,sans-Serif" font-size="9.00">NonBinaryHandler.ts</text>
</a>
</g>
</g>
<!-- src/service/MessageHandler.ts&#45;&gt;src/service/NonBinaryHandler.ts -->
<g id="edge20" class="edge">
<title>src/service/MessageHandler.ts&#45;&gt;src/service/NonBinaryHandler.ts</title>
<path fill="none" stroke="#000000" stroke-width="2" stroke-opacity="0.200000" d="M171.12,-111.51C181.45,-108.72 192.86,-105.63 203.64,-102.72"/>
<polygon fill="#000000" fill-opacity="0.200000" stroke="#000000" stroke-width="2" stroke-opacity="0.200000" points="203.94,-104.81 209.19,-101.22 202.85,-100.76 203.94,-104.81"/>
</g>
<!-- src/util/tool.ts&#45;&gt;src/model/Room.ts -->
<g id="edge22" class="edge">
<title>src/util/tool.ts&#45;&gt;src/model/Room.ts</title>
<path fill="none" stroke="#000000" stroke-width="2" stroke-opacity="0.200000" d="M403.82,-185.22C454.92,-174.01 567.55,-149.29 624.93,-136.7"/>
<polygon fill="#000000" fill-opacity="0.200000" stroke="#000000" stroke-width="2" stroke-opacity="0.200000" points="625.27,-138.77 630.68,-135.43 624.37,-134.67 625.27,-138.77"/>
</g>
<!-- src/model/Manager.test.ts -->
<g id="node6" class="node">
<title>src/model/Manager.test.ts</title>
<g id="a_node6"><a xlink:href="src/model/Manager.test.ts" xlink:title="Manager.test.ts">
<path fill="#ddfeff" stroke="black" d="M410.5,-138C410.5,-138 342.5,-138 342.5,-138 339.5,-138 336.5,-135 336.5,-132 336.5,-132 336.5,-126 336.5,-126 336.5,-123 339.5,-120 342.5,-120 342.5,-120 410.5,-120 410.5,-120 413.5,-120 416.5,-123 416.5,-126 416.5,-126 416.5,-132 416.5,-132 416.5,-135 413.5,-138 410.5,-138"/>
<text text-anchor="start" x="344.5" y="-126.8" font-family="Helvetica,sans-Serif" font-size="9.00">Manager.test.ts</text>
</a>
</g>
</g>
<!-- src/model/Manager.test.ts&#45;&gt;src/model/Manager.ts -->
<g id="edge5" class="edge">
<title>src/model/Manager.test.ts&#45;&gt;src/model/Manager.ts</title>
<path fill="none" stroke="#000000" stroke-width="2" stroke-opacity="0.200000" d="M416.89,-129C422.56,-129 428.39,-129 434.04,-129"/>
<polygon fill="#000000" fill-opacity="0.200000" stroke="#000000" stroke-width="2" stroke-opacity="0.200000" points="433.72,-131.1 439.72,-129 433.72,-126.9 433.72,-131.1"/>
</g>
<!-- src/model/Room.ts&#45;&gt;src/model/User.ts -->
<g id="edge12" class="edge">
<title>src/model/Room.ts&#45;&gt;src/model/User.ts</title>
<path fill="none" stroke="#000000" stroke-width="2" stroke-opacity="0.200000" d="M688.47,-120.81C692.84,-118.91 697.18,-116.65 701,-114 711.75,-106.55 721.51,-95.53 728.57,-86.39"/>
<polygon fill="#000000" fill-opacity="0.200000" stroke="#000000" stroke-width="2" stroke-opacity="0.200000" points="730.16,-87.77 732.04,-81.7 726.78,-85.28 730.16,-87.77"/>
</g>
<!-- src/model/Room.Manager.ts&#45;&gt;src/model/Room.ts -->
<g id="edge11" class="edge">
<title>src/model/Room.Manager.ts&#45;&gt;src/model/Room.ts</title>
<path fill="none" stroke="#000000" stroke-width="2" stroke-opacity="0.200000" d="M608.35,-121.47C613.89,-122.28 619.49,-123.09 624.86,-123.88"/>
<polygon fill="#000000" fill-opacity="0.200000" stroke="#000000" stroke-width="2" stroke-opacity="0.200000" points="624.4,-125.93 630.64,-124.72 625,-121.77 624.4,-125.93"/>
</g>
<!-- src/model/ManagerImpl.ts -->
<g id="node11" class="node">
<title>src/model/ManagerImpl.ts</title>
<g id="a_node11"><a xlink:href="src/model/ManagerImpl.ts" xlink:title="ManagerImpl.ts">
<path fill="#ddfeff" stroke="black" d="M695,-108C695,-108 627,-108 627,-108 624,-108 621,-105 621,-102 621,-102 621,-96 621,-96 621,-93 624,-90 627,-90 627,-90 695,-90 695,-90 698,-90 701,-93 701,-96 701,-96 701,-102 701,-102 701,-105 698,-108 695,-108"/>
<text text-anchor="start" x="629" y="-96.8" font-family="Helvetica,sans-Serif" font-size="9.00">ManagerImpl.ts</text>
</a>
</g>
</g>
<!-- src/model/Room.Manager.ts&#45;&gt;src/model/ManagerImpl.ts -->
<g id="edge10" class="edge">
<title>src/model/Room.Manager.ts&#45;&gt;src/model/ManagerImpl.ts</title>
<path fill="none" stroke="#000000" stroke-width="2" stroke-opacity="0.200000" d="M608.35,-107.61C609.51,-107.42 610.67,-107.22 611.83,-107.03"/>
<polygon fill="#000000" fill-opacity="0.200000" stroke="#000000" stroke-width="2" stroke-opacity="0.200000" points="612.15,-109.1 617.73,-106.05 611.46,-104.96 612.15,-109.1"/>
</g>
<!-- src/model/User.Manager.ts&#45;&gt;src/model/User.ts -->
<g id="edge14" class="edge">
<title>src/model/User.Manager.ts&#45;&gt;src/model/User.ts</title>
<path fill="none" stroke="#000000" stroke-width="2" stroke-opacity="0.200000" d="M605.71,-81.45C635.89,-78.87 676.22,-75.44 704.78,-73"/>
<polygon fill="#000000" fill-opacity="0.200000" stroke="#000000" stroke-width="2" stroke-opacity="0.200000" points="704.8,-75.11 710.6,-72.51 704.44,-70.92 704.8,-75.11"/>
</g>
<!-- src/model/User.Manager.ts&#45;&gt;src/model/ManagerImpl.ts -->
<g id="edge13" class="edge">
<title>src/model/User.Manager.ts&#45;&gt;src/model/ManagerImpl.ts</title>
<path fill="none" stroke="#000000" stroke-width="2" stroke-opacity="0.200000" d="M605.83,-91.1C607.84,-91.39 609.87,-91.69 611.89,-91.98"/>
<polygon fill="#000000" fill-opacity="0.200000" stroke="#000000" stroke-width="2" stroke-opacity="0.200000" points="611.5,-94.05 617.74,-92.84 612.11,-89.89 611.5,-94.05"/>
</g>
<!-- src/model/Publisher.ts -->
<g id="node12" class="node">
<title>src/model/Publisher.ts</title>
<g id="a_node12"><a xlink:href="src/model/Publisher.ts" xlink:title="Publisher.ts">
<path fill="#ddfeff" stroke="black" d="M403.5,-108C403.5,-108 349.5,-108 349.5,-108 346.5,-108 343.5,-105 343.5,-102 343.5,-102 343.5,-96 343.5,-96 343.5,-93 346.5,-90 349.5,-90 349.5,-90 403.5,-90 403.5,-90 406.5,-90 409.5,-93 409.5,-96 409.5,-96 409.5,-102 409.5,-102 409.5,-105 406.5,-108 403.5,-108"/>
<text text-anchor="start" x="351.5" y="-96.8" font-family="Helvetica,sans-Serif" font-size="9.00">Publisher.ts</text>
</a>
</g>
</g>
<!-- src/model/Room.Manager.test.ts -->
<g id="node13" class="node">
<title>src/model/Room.Manager.test.ts</title>
<g id="a_node13"><a xlink:href="src/model/Room.Manager.test.ts" xlink:title="no&#45;orphans">
<path fill="#ccffcc" stroke="orange" d="M424,-78C424,-78 329,-78 329,-78 326,-78 323,-75 323,-72 323,-72 323,-66 323,-66 323,-63 326,-60 329,-60 329,-60 424,-60 424,-60 427,-60 430,-63 430,-66 430,-66 430,-72 430,-72 430,-75 427,-78 424,-78"/>
<text text-anchor="start" x="331" y="-66.8" font-family="Helvetica,sans-Serif" font-size="9.00" fill="orange">Room.Manager.test.ts</text>
</a>
</g>
</g>
<!-- src/model/User.Manager.test.ts -->
<g id="node14" class="node">
<title>src/model/User.Manager.test.ts</title>
<g id="a_node14"><a xlink:href="src/model/User.Manager.test.ts" xlink:title="no&#45;orphans">
<path fill="#ccffcc" stroke="orange" d="M421.5,-48C421.5,-48 331.5,-48 331.5,-48 328.5,-48 325.5,-45 325.5,-42 325.5,-42 325.5,-36 325.5,-36 325.5,-33 328.5,-30 331.5,-30 331.5,-30 421.5,-30 421.5,-30 424.5,-30 427.5,-33 427.5,-36 427.5,-36 427.5,-42 427.5,-42 427.5,-45 424.5,-48 421.5,-48"/>
<text text-anchor="start" x="333.5" y="-36.8" font-family="Helvetica,sans-Serif" font-size="9.00" fill="orange">User.Manager.test.ts</text>
</a>
</g>
</g>
<!-- src/service/BinaryHandler.ts&#45;&gt;src/model/Manager.ts -->
<g id="edge15" class="edge">
<title>src/service/BinaryHandler.ts&#45;&gt;src/model/Manager.ts</title>
<path fill="none" stroke="#000000" stroke-width="2" stroke-opacity="0.200000" d="M290.91,-126.8C296.57,-128.59 302.1,-130.94 307,-134 311.83,-137.02 309.87,-141.53 315,-144 338.03,-155.07 404.8,-148.27 430,-144 433.97,-143.33 438.05,-142.33 442.06,-141.16"/>
<polygon fill="#000000" fill-opacity="0.200000" stroke="#000000" stroke-width="2" stroke-opacity="0.200000" points="442.67,-143.17 447.73,-139.33 441.38,-139.18 442.67,-143.17"/>
</g>
<!-- src/service/BinaryHandler.ts&#45;&gt;src/util/tool.ts -->
<g id="edge18" class="edge">
<title>src/service/BinaryHandler.ts&#45;&gt;src/util/tool.ts</title>
<path fill="none" stroke="#000000" stroke-width="2" stroke-opacity="0.200000" d="M290.88,-124.46C296.87,-126.54 302.51,-129.59 307,-134 317.76,-144.58 305.1,-155.61 315,-167 321.71,-174.72 331.23,-179.98 340.75,-183.55"/>
<polygon fill="#000000" fill-opacity="0.200000" stroke="#000000" stroke-width="2" stroke-opacity="0.200000" points="339.8,-185.45 346.16,-185.34 341.11,-181.46 339.8,-185.45"/>
</g>
<!-- src/service/BinaryHandler.ts&#45;&gt;src/model/User.ts -->
<g id="edge17" class="edge">
<title>src/service/BinaryHandler.ts&#45;&gt;src/model/User.ts</title>
<path fill="none" stroke="#000000" stroke-width="2" stroke-opacity="0.200000" d="M290.93,-116.77C297.07,-114.42 302.74,-110.98 307,-106 318.9,-92.09 301.72,-36.6 315,-24 366,24.37 402.71,-17 473,-17 473,-17 473,-17 564,-17 626.33,-17 642.98,-24.22 701,-47 707.14,-49.41 713.44,-52.71 719.14,-56.06"/>
<polygon fill="#000000" fill-opacity="0.200000" stroke="#000000" stroke-width="2" stroke-opacity="0.200000" points="717.68,-57.63 723.89,-58.99 719.88,-54.05 717.68,-57.63"/>
</g>
<!-- src/service/BinaryHandler.ts&#45;&gt;src/model/Publisher.ts -->
<g id="edge16" class="edge">
<title>src/service/BinaryHandler.ts&#45;&gt;src/model/Publisher.ts</title>
<path fill="none" stroke="#000000" stroke-width="2" stroke-opacity="0.200000" d="M290.77,-113.74C304.96,-111.27 320.77,-108.52 334.87,-106.07"/>
<polygon fill="#000000" fill-opacity="0.200000" stroke="#000000" stroke-width="2" stroke-opacity="0.200000" points="334.86,-108.2 340.41,-105.1 334.14,-104.06 334.86,-108.2"/>
</g>
<!-- src/service/NonBinaryHandler.ts&#45;&gt;src/model/Publisher.ts -->
<g id="edge21" class="edge">
<title>src/service/NonBinaryHandler.ts&#45;&gt;src/model/Publisher.ts</title>
<path fill="none" stroke="#000000" stroke-width="2" stroke-opacity="0.200000" d="M299.36,-94.18C310.99,-94.92 323.24,-95.69 334.42,-96.4"/>
<polygon fill="#000000" fill-opacity="0.200000" stroke="#000000" stroke-width="2" stroke-opacity="0.200000" points="333.99,-98.48 340.11,-96.76 334.25,-94.29 333.99,-98.48"/>
</g>
</g>
</svg>
